<svg id="svg" version="1.1"
    xmlns="http://www.w3.org/2000/svg"
    xmlns:xlink="http://www.w3.org/1999/xlink" width="50" height="50" viewBox="0, 0, 400,400">
    <g id="svgg">
        <path id="path0" d="M60.938 14.012 C 54.244 16.055,50.665 19.050,52.851 20.778 C 68.510 33.153,89.010 38.478,105.148 34.361 C 115.884 31.623,140.625 17.430,140.625 14.010 C 140.625 13.130,63.822 13.131,60.938 14.012 M156.250 14.405 C 156.250 19.424,134.121 36.259,119.716 42.199 C 111.731 45.491,111.964 44.957,115.071 52.849 C 116.568 56.653,118.394 62.402,119.128 65.625 C 119.863 68.848,120.594 71.924,120.754 72.461 C 120.979 73.218,127.325 73.442,148.999 73.458 C 202.953 73.497,222.495 78.756,251.836 101.136 L 254.539 103.197 258.473 96.716 C 266.847 82.918,276.612 72.344,280.978 72.344 C 287.358 72.344,305.871 97.470,311.513 113.788 L 312.363 116.247 318.836 113.637 C 322.396 112.202,327.612 110.420,330.428 109.678 C 333.243 108.936,335.682 108.224,335.847 108.096 C 337.101 107.124,321.723 85.490,312.043 74.610 C 302.596 63.992,283.548 47.748,275.276 43.254 L 272.817 41.919 268.441 45.820 C 253.287 59.326,211.681 70.751,203.308 63.706 C 199.213 60.260,200.218 42.800,205.544 24.873 C 206.837 20.520,207.613 16.701,207.268 16.386 C 204.506 13.870,156.250 11.996,156.250 14.405 M218.872 24.023 C 216.154 31.508,213.281 45.350,213.281 50.963 C 213.281 54.685,233.313 51.082,246.502 44.988 C 251.876 42.505,261.719 36.345,261.719 35.464 C 261.719 33.679,226.436 19.531,221.984 19.531 C 220.891 19.531,220.075 20.709,218.872 24.023 M40.718 34.721 C 40.131 37.052,39.854 50.586,39.876 75.932 L 39.909 113.672 42.419 110.834 C 60.520 90.368,62.076 61.239,46.358 37.081 C 41.914 30.249,41.850 30.223,40.718 34.721 M63.677 42.719 C 67.913 52.680,70.313 63.507,70.313 72.667 L 70.313 77.942 74.623 79.983 C 82.453 83.690,98.363 88.121,100.067 87.068 C 100.347 86.895,100.796 85.379,101.064 83.699 C 101.538 80.739,104.357 76.893,107.210 75.313 C 108.974 74.337,106.997 65.496,102.750 55.368 L 99.923 48.627 90.782 48.240 C 81.686 47.854,73.984 46.104,66.107 42.634 C 63.195 41.352,63.097 41.355,63.677 42.719 M276.172 92.563 C 272.662 97.081,264.046 110.717,264.073 111.712 C 264.079 111.931,266.036 114.395,268.422 117.188 C 279.987 130.725,287.231 143.616,294.105 162.891 C 294.811 164.870,297.357 160.174,300.535 151.031 C 306.706 133.281,299.761 108.191,283.782 90.504 C 280.371 86.728,280.794 86.614,276.172 92.563 M65.557 94.336 C 60.283 106.761,52.832 118.626,44.970 127.117 L 39.844 132.654 39.844 192.493 L 39.844 252.332 45.905 259.564 C 54.894 270.291,61.644 281.256,65.873 292.003 L 67.184 295.335 70.115 294.039 C 76.406 291.258,88.176 287.605,93.945 286.643 L 100.000 285.633 99.981 252.387 L 99.963 219.141 92.859 216.871 C 73.674 210.742,47.436 191.833,48.695 185.043 C 50.122 177.353,74.876 160.374,93.706 154.170 L 100.000 152.096 100.000 126.128 L 100.000 100.160 94.943 99.280 C 88.161 98.099,77.749 95.036,72.255 92.607 C 69.791 91.517,67.630 90.625,67.453 90.625 C 67.277 90.625,66.423 92.295,65.557 94.336 M337.500 120.645 C 331.975 121.870,324.006 124.596,319.531 126.791 L 316.016 128.516 315.490 137.109 C 314.968 145.629,312.386 156.652,309.690 161.865 C 308.048 165.040,308.393 165.133,313.743 162.959 C 325.601 158.141,340.347 156.793,351.367 159.520 C 354.053 160.185,356.250 160.570,356.250 160.377 C 356.250 155.891,343.445 119.151,342.041 119.611 C 341.907 119.655,339.863 120.120,337.500 120.645 M95.703 166.431 C 85.877 169.817,70.492 178.750,65.780 183.805 L 63.982 185.734 67.634 188.949 C 75.715 196.061,97.903 207.827,99.751 205.978 C 99.902 205.827,99.933 196.564,99.818 185.394 L 99.609 165.085 95.703 166.431 M324.603 172.550 C 318.226 174.377,310.694 177.988,304.260 182.305 L 298.902 185.899 299.114 193.145 C 299.356 201.446,298.962 200.891,308.508 206.365 C 324.489 215.531,340.757 217.302,356.129 211.551 L 360.375 209.962 359.958 194.239 C 359.728 185.591,359.178 177.594,358.734 176.468 C 356.887 171.778,335.763 169.353,324.603 172.550 M310.233 225.097 C 313.630 233.515,314.968 239.981,315.103 248.621 L 315.234 257.008 321.789 259.827 C 328.991 262.924,341.687 266.406,345.774 266.406 L 348.380 266.406 351.459 256.776 C 354.369 247.672,357.025 236.353,358.255 227.811 C 358.797 224.048,358.774 223.990,356.942 224.508 C 343.117 228.417,329.808 228.349,318.359 224.310 C 314.492 222.946,310.701 221.620,309.934 221.363 C 308.652 220.935,308.677 221.239,310.233 225.097 M294.994 232.227 C 291.224 247.001,281.682 265.548,271.661 277.580 C 267.966 282.016,267.918 281.812,274.830 291.122 C 280.967 299.388,280.349 299.310,285.750 292.500 C 301.919 272.106,306.858 249.207,299.109 230.560 C 296.959 225.386,296.715 225.484,294.994 232.227 M310.904 273.161 C 302.757 292.353,286.955 313.281,280.612 313.281 C 277.314 313.281,272.578 308.767,264.627 298.047 C 258.940 290.378,259.847 290.613,254.273 295.365 C 226.077 319.399,200.933 326.542,144.470 326.556 L 117.456 326.563 114.910 333.265 C 113.510 336.952,112.482 340.073,112.627 340.201 C 112.772 340.329,115.389 341.522,118.443 342.852 C 129.265 347.567,137.459 352.736,147.498 361.183 C 159.374 371.176,159.316 372.450,146.487 383.502 L 142.583 386.865 168.752 386.528 C 192.766 386.218,212.584 384.455,214.684 382.442 C 214.811 382.320,213.859 378.668,212.569 374.326 C 207.720 358.004,206.401 340.784,209.706 336.958 C 215.796 329.905,256.088 339.037,272.638 351.220 L 277.625 354.891 280.023 353.586 C 287.586 349.469,306.348 332.394,316.135 320.722 C 329.862 304.349,344.767 279.341,341.264 278.557 C 340.268 278.334,337.067 277.621,334.151 276.971 C 329.775 275.997,320.119 272.656,313.874 269.957 C 312.777 269.483,312.202 270.103,310.904 273.161 M39.882 314.453 L 39.886 357.422 42.165 354.688 C 62.501 330.294,62.223 299.609,41.430 273.438 L 39.878 271.484 39.882 314.453 M89.370 300.354 C 85.457 301.365,79.623 303.409,76.407 304.895 L 70.558 307.597 70.084 316.103 C 69.600 324.788,67.688 333.600,64.850 340.220 C 63.391 343.624,63.374 343.880,64.639 343.381 C 75.559 339.070,90.129 336.276,96.529 337.264 C 99.511 337.725,100.061 337.072,103.109 329.460 L 105.524 323.429 103.575 321.327 C 101.134 318.694,100.000 313.530,100.000 305.040 C 100.000 297.243,100.519 297.471,89.370 300.354 M220.777 352.148 C 221.934 363.007,226.113 378.906,227.809 378.906 C 230.133 378.906,244.895 373.029,255.461 367.897 L 266.781 362.399 264.836 360.929 C 256.285 354.470,235.179 347.656,223.719 347.656 L 220.299 347.656 220.777 352.148 M80.145 351.248 C 74.768 352.549,62.711 358.099,57.283 361.772 C 52.099 365.279,43.750 372.027,43.750 372.708 C 43.750 374.338,51.331 381.331,55.615 383.654 L 60.547 386.328 90.234 386.555 L 119.922 386.781 124.609 383.964 C 131.481 379.834,140.728 372.579,140.402 371.574 C 139.816 369.766,128.229 361.551,121.094 357.884 C 106.304 350.284,93.026 348.132,80.145 351.248 " stroke="none" fill="#000000" fill-rule="evenodd"></path>
    </g>
</svg>